<?xml version="1.0" encoding="UTF-8"?>
<svg version="1.1" xmlns="http://www.w3.org/2000/svg" width="500" height="500">
<path d="M0 0 C4.29 0 8.58 0 13 0 C13.33 11.55 13.66 23.1 14 35 C15.98 33.35 17.96 31.7 20 30 C23.56045177 28.81318274 26.43808337 28.90310168 30.1875 28.9375 C31.45980469 28.94652344 32.73210937 28.95554688 34.04296875 28.96484375 C35.50669922 28.98224609 35.50669922 28.98224609 37 29 C35.6910428 25.87802522 35.6910428 25.87802522 33 24 C27.82299767 23.69547045 23.85671426 24.41413412 19 26 C15 19.25 15 19.25 15 17 C23.39143513 12.92259985 31.29570309 11.21795552 40.375 14.1875 C45.07091137 16.23714984 48.13463879 19.14565455 50.3125 23.8125 C50.539375 24.534375 50.76625 25.25625 51 26 C51.37511719 25.46890625 51.75023437 24.9378125 52.13671875 24.390625 C55.75420788 19.39721431 58.948251 15.01724967 65 13 C67.0859375 12.796875 67.0859375 12.796875 69.375 12.75 C70.12523437 12.72421875 70.87546875 12.6984375 71.6484375 12.671875 C74 13 74 13 79 16 C79.33 10.72 79.66 5.44 80 0 C84.29 0 88.58 0 93 0 C93 16.83 93 33.66 93 51 C88.71 51 84.42 51 80 51 C80 50.34 80 49.68 80 49 C79.01 49.495 78.02 49.99 77 50.5 C72.32492425 52.46994119 67.95941043 53.08450444 63.11328125 51.30859375 C57.879029 48.59495755 53.8909995 44.67299851 52 39 C51.67 42.96 51.34 46.92 51 51 C46.71 51 42.42 51 38 51 C37.67 50.34 37.34 49.68 37 49 C36.175 49.495 35.35 49.99 34.5 50.5 C29.83147972 52.50079441 25.74021751 53.09394202 21.00390625 51.203125 C17.81326006 49.47845139 16.02532018 48.03798027 14 45 C13.67 46.98 13.34 48.96 13 51 C8.71 51 4.42 51 0 51 C-0.33 50.34 -0.66 49.68 -1 49 C-1.825 49.495 -2.65 49.99 -3.5 50.5 C-8.78256033 52.76395443 -12.80667592 52.81712074 -18.1875 50.8125 C-23.55057497 47.35629613 -26.40374246 44.23991584 -28 38 C-28.66 38 -29.32 38 -30 38 C-30.0825 38.721875 -30.165 39.44375 -30.25 40.1875 C-31.39886777 44.49575414 -33.6583653 47.02830995 -37.23828125 49.62109375 C-42.23003898 52.11344238 -47.55783589 51.63423717 -53 51 C-55.70832068 49.96617867 -56.88468073 49.05488157 -59 47 C-59 46.34 -59 45.68 -59 45 C-59.66 45 -60.32 45 -61 45 C-61 51.6 -61 58.2 -61 65 C-62.65 65 -64.3 65 -66 65 C-66 48.5 -66 32 -66 15 C-64.35 15 -62.7 15 -61 15 C-60.67 16.65 -60.34 18.3 -60 20 C-59.21625 19.360625 -58.4325 18.72125 -57.625 18.0625 C-52.6629641 14.16375751 -48.15565734 14.41018668 -42 15 C-37.48881028 16.30488959 -34.21735205 18.26200476 -31.5 22.125 C-30 25 -30 25 -30 27 C-29.34 27 -28.68 27 -28 27 C-27.9175 26.278125 -27.835 25.55625 -27.75 24.8125 C-26.6495818 20.68593174 -24.78295091 18.21762501 -21.23828125 15.796875 C-16.30305207 13.04323043 -12.61468217 12.36608427 -7 13 C-5.02 13.99 -3.04 14.98 -1 16 C-0.67 10.72 -0.34 5.44 0 0 Z " fill="#FAFAFA" transform="translate(236,214)"/>
<path d="M0 0 C4.29 0 8.58 0 13 0 C13 4.62 13 9.24 13 14 C16.96 14 20.92 14 25 14 C27.64 20.6 30.28 27.2 33 34 C37.6268373 24.0561435 37.6268373 24.0561435 42 14 C45.96 14 49.92 14 54 14 C53.33106903 17.34465483 52.82222143 19.75377599 51.57299805 22.77709961 C51.28567307 23.47810287 50.99834808 24.17910614 50.70231628 24.90135193 C50.3919191 25.64417923 50.08152191 26.38700653 49.76171875 27.15234375 C49.43967972 27.93009659 49.11764069 28.70784943 48.7858429 29.50917053 C48.10475973 31.14990617 47.42129219 32.7896538 46.7355957 34.4284668 C45.69383971 36.92232339 44.66389003 39.42083072 43.63476562 41.91992188 C42.96946273 43.51852597 42.30346948 45.11684298 41.63671875 46.71484375 C41.33239426 47.45564682 41.02806976 48.19644989 40.71452332 48.95970154 C38.07303223 55.22700764 35.3909792 61.05388381 29.05859375 64.30859375 C23.65289063 66.12417146 18.56739734 65.64857821 13.375 63.5 C12.59125 63.005 11.8075 62.51 11 62 C12.32 59.03 13.64 56.06 15 53 C18.3 53 21.6 53 25 53 C24.53781172 46.0671758 21.76797604 40.33649219 18.9375 34.0625 C17.308125 30.411875 15.67875 26.76125 14 23 C13.67 32.24 13.34 41.48 13 51 C8.71 51 4.42 51 0 51 C-0.33 50.34 -0.66 49.68 -1 49 C-1.825 49.495 -2.65 49.99 -3.5 50.5 C-8.78256033 52.76395443 -12.80667592 52.81712074 -18.1875 50.8125 C-23.33626517 47.49440689 -26.95018272 43.82579648 -29 38 C-29.7843977 31.76308168 -29.5166171 26.24117867 -26.34375 20.72265625 C-23.33639756 16.86730036 -19.59269851 14.5308995 -15 13 C-8.57521991 12.57870294 -7.24633915 12.87683042 -1 16 C-0.67 10.72 -0.34 5.44 0 0 Z " fill="#F7F7F7" transform="translate(359,214)"/>
<path d="M0 0 C4.29 0 8.58 0 13 0 C13 16.83 13 33.66 13 51 C8.71 51 4.42 51 0 51 C0 50.34 0 49.68 0 49 C-0.99 49.495 -1.98 49.99 -3 50.5 C-7.67507575 52.46994119 -12.04058957 53.08450444 -16.88671875 51.30859375 C-22.120971 48.59495755 -26.1090005 44.67299851 -28 39 C-29.44077757 26.6122836 -29.44077757 26.6122836 -26.390625 21.08203125 C-22.4617128 16.55492001 -18.8133787 13.50279137 -12.71875 12.69921875 C-11.9865625 12.69535156 -11.254375 12.69148437 -10.5 12.6875 C-9.40171875 12.66236328 -9.40171875 12.66236328 -8.28125 12.63671875 C-6 13 -6 13 -1 16 C-0.67 10.72 -0.34 5.44 0 0 Z " fill="#F9F9F9" transform="translate(316,214)"/>
<path d="M0 0 C1.65 0 3.3 0 5 0 C5.33 1.65 5.66 3.3 6 5 C6.78375 4.360625 7.5675 3.72125 8.375 3.0625 C13.3370359 -0.83624249 17.84434266 -0.58981332 24 0 C28.51118972 1.30488959 31.78264795 3.26200476 34.5 7.125 C36 10 36 10 36 12 C36.66 12 37.32 12 38 12 C38 15.63 38 19.26 38 23 C37.34 23 36.68 23 36 23 C35.9175 23.721875 35.835 24.44375 35.75 25.1875 C34.60113223 29.49575414 32.3416347 32.02830995 28.76171875 34.62109375 C23.76996102 37.11344238 18.44216411 36.63423717 13 36 C10.29167932 34.96617867 9.11531927 34.05488157 7 32 C7 31.34 7 30.68 7 30 C6.34 30 5.68 30 5 30 C5 36.6 5 43.2 5 50 C3.35 50 1.7 50 0 50 C0 33.5 0 17 0 0 Z " fill="#EAEAEA" transform="translate(170,229)"/>
<path d="M0 0 C0.33 0 0.66 0 1 0 C1.33 11.55 1.66 23.1 2 35 C4.97 32.525 4.97 32.525 8 30 C11.56045177 28.81318274 14.43808337 28.90310168 18.1875 28.9375 C19.45980469 28.94652344 20.73210937 28.95554688 22.04296875 28.96484375 C23.50669922 28.98224609 23.50669922 28.98224609 25 29 C23.6910428 25.87802522 23.6910428 25.87802522 21 24 C15.82299767 23.69547045 11.85671426 24.41413412 7 26 C3 19.25 3 19.25 3 17 C11.39143513 12.92259985 19.29570309 11.21795552 28.375 14.1875 C33.12768441 16.26740688 35.93739121 19.42440765 38.8125 23.6875 C41.83807792 32.12726998 39.68464225 42.27081135 39 51 C34.71 51 30.42 51 26 51 C25.67 50.34 25.34 49.68 25 49 C24.175 49.495 23.35 49.99 22.5 50.5 C17.83147972 52.50079441 13.74021751 53.09394202 9.00390625 51.203125 C5.81326006 49.47845139 4.02532018 48.03798027 2 45 C1.67 46.98 1.34 48.96 1 51 C0.67 51 0.34 51 0 51 C0 34.17 0 17.34 0 0 Z " fill="#F0F0F0" transform="translate(248,214)"/>
<path d="M0 0 C1.65 0 3.3 0 5 0 C5.33 1.32 5.66 2.64 6 4 C6.763125 3.34 7.52625 2.68 8.3125 2 C12.81917529 -1.01518038 17.78766259 -0.66845243 23 0 C26.34124522 1.46179478 28.56503461 3.30872246 31 6 C31.94875 5.195625 32.8975 4.39125 33.875 3.5625 C38.44136502 -0.30898338 41.98950243 -0.45693336 47.94140625 -0.4140625 C51.92221612 0.12484663 53.85432794 1.46424107 56.6953125 4.19921875 C59.64271101 8.26733466 60.24605454 12.00968188 60.1953125 16.95703125 C60.18886719 18.06884766 60.18242187 19.18066406 60.17578125 20.32617188 C60.15902344 21.47666016 60.14226562 22.62714844 60.125 23.8125 C60.11597656 24.98232422 60.10695312 26.15214844 60.09765625 27.35742188 C60.07413732 30.23849053 60.04126852 33.11913989 60 36 C58.02 36 56.04 36 54 36 C53.98541748 35.23333008 53.97083496 34.46666016 53.95581055 33.67675781 C53.8813078 30.20066507 53.78465354 26.72553032 53.6875 23.25 C53.65366211 21.44015625 53.65366211 21.44015625 53.61914062 19.59375 C53.58369141 18.43359375 53.54824219 17.2734375 53.51171875 16.078125 C53.48553467 15.00981445 53.45935059 13.94150391 53.43237305 12.84082031 C52.94913382 9.66579399 52.23720867 8.27383013 50 6 C46.39427296 4.79809099 43.7897565 4.67329685 40 5 C36.46568861 7.19912709 34.54832872 9.17211647 33 13 C32.63675609 15.60750922 32.63675609 15.60750922 32.5859375 18.421875 C32.54726562 19.44667969 32.50859375 20.47148437 32.46875 21.52734375 C32.42234375 23.12255859 32.42234375 23.12255859 32.375 24.75 C32.33632812 25.82894531 32.29765625 26.90789062 32.2578125 28.01953125 C32.16365369 30.67951775 32.07802613 33.3394994 32 36 C30.35 36 28.7 36 27 36 C26.98598145 34.84999512 26.98598145 34.84999512 26.97167969 33.67675781 C26.91797227 30.20051897 26.83432424 26.72562526 26.75 23.25 C26.73582031 22.0434375 26.72164062 20.836875 26.70703125 19.59375 C26.67480469 18.43359375 26.64257812 17.2734375 26.609375 16.078125 C26.58842773 15.00981445 26.56748047 13.94150391 26.54589844 12.84082031 C25.87752754 9.3626612 24.72079719 8.19369844 22 6 C18.93570224 4.46785112 16.3834358 4.77061452 13 5 C9.17240223 6.70115456 7.52836531 8.14425578 6 12 C5.63611114 14.70534857 5.63611114 14.70534857 5.5859375 17.640625 C5.54726562 18.71054688 5.50859375 19.78046875 5.46875 20.8828125 C5.4378125 21.99398437 5.406875 23.10515625 5.375 24.25 C5.33632812 25.37664062 5.29765625 26.50328125 5.2578125 27.6640625 C5.16362664 30.44254548 5.07800414 33.22102334 5 36 C3.35 36 1.7 36 0 36 C0 24.12 0 12.24 0 0 Z " fill="#EEEEEE" transform="translate(71,229)"/>
<path d="M0 0 C4.38299083 2.19149542 7.20074724 4.40190962 9 9 C9.68426057 14.04325384 9.5739862 17.83076884 7.3125 22.4375 C3.71330378 26.42579851 0.99228129 28.15243606 -4.375 28.5625 C-9.0366567 28.42997799 -11.39319954 26.66485044 -14.6875 23.5078125 C-17.88281129 19.83700846 -17.44259815 15.72638583 -17.42578125 11.0625 C-16.78309618 6.43988442 -14.57552792 3.86227494 -11 1 C-7.5259169 -0.73704155 -3.79843331 -0.46041616 0 0 Z " fill="#050505" transform="translate(193,233)"/>
<path d="M0 0 C1.65 0 3.3 0 5 0 C9.74118849 9.16977114 13.93243311 18.51703341 18 28 C20.38385405 25.61614595 21.23208931 23.46803586 22.56640625 20.37109375 C23.2944043 18.69563477 23.2944043 18.69563477 24.03710938 16.98632812 C24.79217773 15.2296582 24.79217773 15.2296582 25.5625 13.4375 C26.56176273 11.12281645 27.56295894 8.8089663 28.56640625 6.49609375 C29.00927979 5.46669678 29.45215332 4.4372998 29.90844727 3.37670898 C31 1 31 1 32 0 C33.66617115 -0.04063832 35.33388095 -0.042721 37 0 C26.29949685 24.77626887 26.29949685 24.77626887 21 36 C19.02 36 17.04 36 15 36 C13.18192498 31.83883209 11.36726425 27.67619791 9.55566406 23.51220703 C8.93972413 22.09774266 8.32287546 20.68367363 7.70507812 19.27001953 C6.8139745 17.23054203 5.92621753 15.18963517 5.0390625 13.1484375 C4.76502594 12.52319183 4.49098938 11.89794617 4.20864868 11.25375366 C2.60573155 7.55535859 1.2188711 3.84175829 0 0 Z " fill="#F0F0F0" transform="translate(132,229)"/>
<path d="M0 0 C1.91015625 0.47265625 1.91015625 0.47265625 4.47265625 2.41015625 C6.4681762 6.66148137 6.24340738 10.00841538 4.91015625 14.47265625 C2.68088256 17.1973241 1.37836782 17.4043754 -2.08984375 17.91015625 C-5.75289325 17.37596153 -6.8226146 16.32768555 -9.08984375 13.47265625 C-10.51646594 10.61941188 -10.40018243 8.63811076 -10.08984375 5.47265625 C-7.60510291 0.71023631 -5.15101329 -0.37549443 0 0 Z " fill="#0A0A0A" transform="translate(353.08984375,237.52734375)"/>
<path d="M0 0 C1.91015625 0.47265625 1.91015625 0.47265625 4.47265625 2.41015625 C6.4681762 6.66148137 6.24340738 10.00841538 4.91015625 14.47265625 C2.68088256 17.1973241 1.37836782 17.4043754 -2.08984375 17.91015625 C-5.75289325 17.37596153 -6.8226146 16.32768555 -9.08984375 13.47265625 C-10.51646594 10.61941188 -10.40018243 8.63811076 -10.08984375 5.47265625 C-7.60510291 0.71023631 -5.15101329 -0.37549443 0 0 Z " fill="#0A0A0A" transform="translate(230.08984375,237.52734375)"/>
<path d="M0 0 C2.4375 1.5625 2.4375 1.5625 4 4 C4.63811961 9.01379692 3.98624355 11.93870877 1 16 C0 17 0 17 -3.3125 17.3125 C-7 17 -7 17 -9.4375 15.5625 C-11.75587974 11.76035723 -11.77201236 8.33759522 -11 4 C-8.21093968 -0.57405892 -5.10245628 -0.72892233 0 0 Z " fill="#060606" transform="translate(312,238)"/>
<path d="M0 0 C4 2 4 2 5 4 C5.66 4 6.32 4 7 4 C7.66 2.68 8.32 1.36 9 0 C9.99 0 10.98 0 12 0 C12 3.63 12 7.26 12 11 C11.01 11 10.02 11 9 11 C8.67 10.01 8.34 9.02 8 8 C7.67 8.66 7.34 9.32 7 10 C6.01 9.67 5.02 9.34 4 9 C3.67 9.66 3.34 10.32 3 11 C2.01 11 1.02 11 0 11 C0 7.37 0 3.74 0 0 Z " fill="#DCDCDC" transform="translate(427,215)"/>
<path d="M0 0 C1.23556641 0.01740234 1.23556641 0.01740234 2.49609375 0.03515625 C3.32238281 0.04417969 4.14867187 0.05320313 5 0.0625 C5.63808594 0.07410156 6.27617187 0.08570313 6.93359375 0.09765625 C7.12109375 2.47265625 7.12109375 2.47265625 6.93359375 5.09765625 C3.48113551 7.39929507 1.98620662 7.44255947 -2.06640625 7.09765625 C-2.72640625 6.43765625 -3.38640625 5.77765625 -4.06640625 5.09765625 C-3.31779097 0.15679541 -3.31779097 0.15679541 0 0 Z " fill="#090909" transform="translate(266.06640625,249.90234375)"/>
<path d="M0 0 C2.97 0 5.94 0 9 0 C9 0.66 9 1.32 9 2 C8.01 2 7.02 2 6 2 C6 4.97 6 7.94 6 11 C5.01 11 4.02 11 3 11 C3 8.03 3 5.06 3 2 C2.01 2 1.02 2 0 2 C0 1.34 0 0.68 0 0 Z " fill="#FBFBFB" transform="translate(416,215)"/>
<path d="M0 0 C4 2 4 2 5.25 4.625 C5.4975 5.40875 5.745 6.1925 6 7 C5.01 7 4.02 7 3 7 C2.67 8.32 2.34 9.64 2 11 C1.34 11 0.68 11 0 11 C0 7.37 0 3.74 0 0 Z " fill="#F7F7F7" transform="translate(427,215)"/>
</svg>
